# xmcd CD database file
#
# Track frame offsets:
#	150
#	25120
#	46192
#	74752
#
# Disc length: 1273 seconds
#
# Revision: 0
# Processed by: cddbd v1.5.1PL2 Copyright (c) Steve Scherf et al.
# Submitted via: CDex 1.51
#
DISCID=3004f704
DTITLE=double - ROCK THE PARTY
DYEAR=2005
DGENRE=JPop
TTITLE0=ROCK THE PARTY
TTITLE1=THE LOVE ON FIRE
TTITLE2=ROCK THE PARTY -STUDIO APARTMENT REMIX-
TTITLE3=ROCK THE PARTY [RADIO MIX]
EXTD=YEAR: 2005
EXTT0=
EXTT1=
EXTT2=
EXTT3=
PLAYORDER=
